<?xml version="1.0" encoding="UTF-8" standalone="no"?>
<!DOCTYPE svg PUBLIC "-//W3C//DTD SVG 1.1//EN"
 "http://www.w3.org/Graphics/SVG/1.1/DTD/svg11.dtd">
<!-- Generated by graphviz version 13.1.0 (20250701.0955)
 -->
<!-- Pages: 1 -->
<svg width="689pt" height="980pt"
 viewBox="0.00 0.00 689.00 980.00" xmlns="http://www.w3.org/2000/svg" xmlns:xlink="http://www.w3.org/1999/xlink">
<g id="graph0" class="graph" transform="scale(1 1) rotate(0) translate(4 976)">
<polygon fill="white" stroke="none" points="-4,4 -4,-976 684.75,-976 684.75,4 -4,4"/>
<!-- &#45;4230259757041123683 -->
<g id="node1" class="node">
<title>&#45;4230259757041123683</title>
<polygon fill="none" stroke="black" points="400.5,-972 229.25,-972 229.25,-936 400.5,-936 400.5,-972"/>
<text xml:space="preserve" text-anchor="middle" x="314.88" y="-946.62" font-family="Helvetica,sans-Serif" font-size="20.00">ResetIndex(Sum)</text>
</g>
<!-- &#45;3512618919470051800 -->
<g id="node2" class="node">
<title>&#45;3512618919470051800</title>
<polygon fill="none" stroke="black" points="394.88,-900 234.88,-900 234.88,-864 394.88,-864 394.88,-900"/>
<text xml:space="preserve" text-anchor="middle" x="314.88" y="-874.62" font-family="Helvetica,sans-Serif" font-size="20.00">Sum(Projection)</text>
</g>
<!-- &#45;3512618919470051800&#45;&gt;&#45;4230259757041123683 -->
<g id="edge1" class="edge">
<title>&#45;3512618919470051800&#45;&gt;&#45;4230259757041123683</title>
<path fill="none" stroke="black" d="M314.88,-900.3C314.88,-907.59 314.88,-916.27 314.88,-924.46"/>
<polygon fill="black" stroke="black" points="311.38,-924.38 314.88,-934.38 318.38,-924.38 311.38,-924.38"/>
</g>
<!-- 62929764079439307 -->
<g id="node3" class="node">
<title>62929764079439307</title>
<polygon fill="none" stroke="black" points="556.88,-828 72.88,-828 72.88,-792 556.88,-792 556.88,-828"/>
<text xml:space="preserve" text-anchor="middle" x="314.88" y="-802.62" font-family="Helvetica,sans-Serif" font-size="20.00">Projection(Assign, [&#39;playcount&#39;, &#39;user_idx&#39;, &#39;track_idx&#39;])</text>
</g>
<!-- 62929764079439307&#45;&gt;&#45;3512618919470051800 -->
<g id="edge2" class="edge">
<title>62929764079439307&#45;&gt;&#45;3512618919470051800</title>
<path fill="none" stroke="black" d="M314.88,-828.3C314.88,-835.59 314.88,-844.27 314.88,-852.46"/>
<polygon fill="black" stroke="black" points="311.38,-852.38 314.88,-862.38 318.38,-852.38 311.38,-852.38"/>
</g>
<!-- &#45;8287040382745446898 -->
<g id="node4" class="node">
<title>&#45;8287040382745446898</title>
<polygon fill="none" stroke="black" points="497.25,-756 132.5,-756 132.5,-720 497.25,-720 497.25,-756"/>
<text xml:space="preserve" text-anchor="middle" x="314.88" y="-730.62" font-family="Helvetica,sans-Serif" font-size="20.00">Assign(Assign, track_idx, PropertyMap)</text>
</g>
<!-- &#45;8287040382745446898&#45;&gt;62929764079439307 -->
<g id="edge3" class="edge">
<title>&#45;8287040382745446898&#45;&gt;62929764079439307</title>
<path fill="none" stroke="black" d="M314.88,-756.3C314.88,-763.59 314.88,-772.27 314.88,-780.46"/>
<polygon fill="black" stroke="black" points="311.38,-780.38 314.88,-790.38 318.38,-780.38 311.38,-780.38"/>
</g>
<!-- 8666322276391040870 -->
<g id="node5" class="node">
<title>8666322276391040870</title>
<polygon fill="none" stroke="black" points="264.62,-684 31.12,-684 31.12,-648 264.62,-648 264.62,-684"/>
<text xml:space="preserve" text-anchor="middle" x="147.88" y="-658.62" font-family="Helvetica,sans-Serif" font-size="20.00">PropertyMap(Projection)</text>
</g>
<!-- 8666322276391040870&#45;&gt;&#45;8287040382745446898 -->
<g id="edge4" class="edge">
<title>8666322276391040870&#45;&gt;&#45;8287040382745446898</title>
<path fill="none" stroke="black" d="M189.59,-684.48C211.79,-693.79 239.3,-705.32 262.88,-715.21"/>
<polygon fill="black" stroke="black" points="261.44,-718.4 272.01,-719.03 264.14,-711.94 261.44,-718.4"/>
</g>
<!-- 2554309620221188310 -->
<g id="node6" class="node">
<title>2554309620221188310</title>
<polygon fill="none" stroke="black" points="295.75,-540 0,-540 0,-504 295.75,-504 295.75,-540"/>
<text xml:space="preserve" text-anchor="middle" x="147.88" y="-514.62" font-family="Helvetica,sans-Serif" font-size="20.00">Projection(Categorize, track_id)</text>
</g>
<!-- 2554309620221188310&#45;&gt;8666322276391040870 -->
<g id="edge6" class="edge">
<title>2554309620221188310&#45;&gt;8666322276391040870</title>
<path fill="none" stroke="black" d="M147.88,-540.41C147.88,-564.39 147.88,-607.86 147.88,-636.58"/>
<polygon fill="black" stroke="black" points="144.38,-636.38 147.88,-646.38 151.38,-636.38 144.38,-636.38"/>
</g>
<!-- 7856180802775759087 -->
<g id="node7" class="node">
<title>7856180802775759087</title>
<polygon fill="none" stroke="black" points="417,-468 230.75,-468 230.75,-432 417,-432 417,-468"/>
<text xml:space="preserve" text-anchor="middle" x="323.88" y="-442.62" font-family="Helvetica,sans-Serif" font-size="20.00">Categorize(Assign)</text>
</g>
<!-- 7856180802775759087&#45;&gt;2554309620221188310 -->
<g id="edge7" class="edge">
<title>7856180802775759087&#45;&gt;2554309620221188310</title>
<path fill="none" stroke="black" d="M279.92,-468.48C256.31,-477.87 227,-489.53 202,-499.47"/>
<polygon fill="black" stroke="black" points="200.98,-496.11 192.98,-503.06 203.57,-502.62 200.98,-496.11"/>
</g>
<!-- 3452632759753273270 -->
<g id="node14" class="node">
<title>3452632759753273270</title>
<polygon fill="none" stroke="black" points="680.75,-684 283,-684 283,-648 680.75,-648 680.75,-684"/>
<text xml:space="preserve" text-anchor="middle" x="481.88" y="-658.62" font-family="Helvetica,sans-Serif" font-size="20.00">Assign(Categorize, user_idx, PropertyMap)</text>
</g>
<!-- 7856180802775759087&#45;&gt;3452632759753273270 -->
<g id="edge16" class="edge">
<title>7856180802775759087&#45;&gt;3452632759753273270</title>
<path fill="none" stroke="black" d="M323.32,-468.34C323.22,-500.58 327.57,-570.29 363.88,-612 375.37,-625.2 390.79,-635.28 406.7,-642.91"/>
<polygon fill="black" stroke="black" points="405.24,-646.09 415.8,-646.96 408.09,-639.69 405.24,-646.09"/>
</g>
<!-- &#45;5964865556416128289 -->
<g id="node16" class="node">
<title>&#45;5964865556416128289</title>
<polygon fill="none" stroke="black" points="643.88,-540 351.88,-540 351.88,-504 643.88,-504 643.88,-540"/>
<text xml:space="preserve" text-anchor="middle" x="497.88" y="-514.62" font-family="Helvetica,sans-Serif" font-size="20.00">Projection(Categorize, user_id)</text>
</g>
<!-- 7856180802775759087&#45;&gt;&#45;5964865556416128289 -->
<g id="edge18" class="edge">
<title>7856180802775759087&#45;&gt;&#45;5964865556416128289</title>
<path fill="none" stroke="black" d="M367.33,-468.48C390.57,-477.83 419.39,-489.43 444.03,-499.34"/>
<polygon fill="black" stroke="black" points="442.68,-502.57 453.26,-503.05 445.29,-496.07 442.68,-502.57"/>
</g>
<!-- &#45;8932041229416612908 -->
<g id="node8" class="node">
<title>&#45;8932041229416612908</title>
<polygon fill="none" stroke="black" points="476.62,-396 171.12,-396 171.12,-360 476.62,-360 476.62,-396"/>
<text xml:space="preserve" text-anchor="middle" x="323.88" y="-370.62" font-family="Helvetica,sans-Serif" font-size="20.00">Assign(Drop, playcount, AsType)</text>
</g>
<!-- &#45;8932041229416612908&#45;&gt;7856180802775759087 -->
<g id="edge8" class="edge">
<title>&#45;8932041229416612908&#45;&gt;7856180802775759087</title>
<path fill="none" stroke="black" d="M323.88,-396.3C323.88,-403.59 323.88,-412.27 323.88,-420.46"/>
<polygon fill="black" stroke="black" points="320.38,-420.38 323.88,-430.38 327.38,-420.38 320.38,-420.38"/>
</g>
<!-- 7753334305767497030 -->
<g id="node9" class="node">
<title>7753334305767497030</title>
<polygon fill="none" stroke="black" points="495.62,-324 310.12,-324 310.12,-288 495.62,-288 495.62,-324"/>
<text xml:space="preserve" text-anchor="middle" x="402.88" y="-298.62" font-family="Helvetica,sans-Serif" font-size="20.00">AsType(Projection)</text>
</g>
<!-- 7753334305767497030&#45;&gt;&#45;8932041229416612908 -->
<g id="edge10" class="edge">
<title>7753334305767497030&#45;&gt;&#45;8932041229416612908</title>
<path fill="none" stroke="black" d="M383.35,-324.3C373.85,-332.72 362.27,-342.98 351.85,-352.21"/>
<polygon fill="black" stroke="black" points="349.75,-349.4 344.59,-358.65 354.39,-354.64 349.75,-349.4"/>
</g>
<!-- &#45;5390742716012347520 -->
<g id="node10" class="node">
<title>&#45;5390742716012347520</title>
<polygon fill="none" stroke="black" points="550,-252 291.75,-252 291.75,-216 550,-216 550,-252"/>
<text xml:space="preserve" text-anchor="middle" x="420.88" y="-226.62" font-family="Helvetica,sans-Serif" font-size="20.00">Projection(Drop, playcount)</text>
</g>
<!-- &#45;5390742716012347520&#45;&gt;7753334305767497030 -->
<g id="edge11" class="edge">
<title>&#45;5390742716012347520&#45;&gt;7753334305767497030</title>
<path fill="none" stroke="black" d="M416.43,-252.3C414.53,-259.68 412.27,-268.48 410.14,-276.75"/>
<polygon fill="black" stroke="black" points="406.75,-275.87 407.65,-286.43 413.53,-277.62 406.75,-275.87"/>
</g>
<!-- &#45;4154762143560081991 -->
<g id="node11" class="node">
<title>&#45;4154762143560081991</title>
<polygon fill="none" stroke="black" points="481.5,-180 202.25,-180 202.25,-144 481.5,-144 481.5,-180"/>
<text xml:space="preserve" text-anchor="middle" x="341.88" y="-154.62" font-family="Helvetica,sans-Serif" font-size="20.00">Drop(ArrowStringConversion)</text>
</g>
<!-- &#45;4154762143560081991&#45;&gt;&#45;8932041229416612908 -->
<g id="edge9" class="edge">
<title>&#45;4154762143560081991&#45;&gt;&#45;8932041229416612908</title>
<path fill="none" stroke="black" d="M313.77,-180.36C301.88,-189.37 289.32,-201.54 282.88,-216 262.84,-260.93 287.7,-317.45 306.52,-350.17"/>
<polygon fill="black" stroke="black" points="303.44,-351.84 311.58,-358.62 309.45,-348.24 303.44,-351.84"/>
</g>
<!-- &#45;4154762143560081991&#45;&gt;&#45;5390742716012347520 -->
<g id="edge12" class="edge">
<title>&#45;4154762143560081991&#45;&gt;&#45;5390742716012347520</title>
<path fill="none" stroke="black" d="M361.4,-180.3C370.9,-188.72 382.48,-198.98 392.9,-208.21"/>
<polygon fill="black" stroke="black" points="390.36,-210.64 400.16,-214.65 395,-205.4 390.36,-210.64"/>
</g>
<!-- &#45;6355847845782204286 -->
<g id="node12" class="node">
<title>&#45;6355847845782204286</title>
<polygon fill="none" stroke="black" points="552.75,-108 131,-108 131,-72 552.75,-72 552.75,-108"/>
<text xml:space="preserve" text-anchor="middle" x="341.88" y="-82.62" font-family="Helvetica,sans-Serif" font-size="20.00">ArrowStringConversion(FromMapProjectable)</text>
</g>
<!-- &#45;6355847845782204286&#45;&gt;&#45;4154762143560081991 -->
<g id="edge13" class="edge">
<title>&#45;6355847845782204286&#45;&gt;&#45;4154762143560081991</title>
<path fill="none" stroke="black" d="M341.88,-108.3C341.88,-115.59 341.88,-124.27 341.88,-132.46"/>
<polygon fill="black" stroke="black" points="338.38,-132.38 341.88,-142.38 345.38,-132.38 338.38,-132.38"/>
</g>
<!-- 8908101144410872972 -->
<g id="node13" class="node">
<title>8908101144410872972</title>
<polygon fill="none" stroke="black" points="442.88,-36 240.88,-36 240.88,0 442.88,0 442.88,-36"/>
<text xml:space="preserve" text-anchor="middle" x="341.88" y="-10.62" font-family="Helvetica,sans-Serif" font-size="20.00">FromMapProjectable</text>
</g>
<!-- 8908101144410872972&#45;&gt;&#45;6355847845782204286 -->
<g id="edge14" class="edge">
<title>8908101144410872972&#45;&gt;&#45;6355847845782204286</title>
<path fill="none" stroke="black" d="M341.88,-36.3C341.88,-43.59 341.88,-52.27 341.88,-60.46"/>
<polygon fill="black" stroke="black" points="338.38,-60.38 341.88,-70.38 345.38,-60.38 338.38,-60.38"/>
</g>
<!-- 3452632759753273270&#45;&gt;&#45;8287040382745446898 -->
<g id="edge5" class="edge">
<title>3452632759753273270&#45;&gt;&#45;8287040382745446898</title>
<path fill="none" stroke="black" d="M440.16,-684.48C417.96,-693.79 390.45,-705.32 366.87,-715.21"/>
<polygon fill="black" stroke="black" points="365.61,-711.94 357.74,-719.03 368.31,-718.4 365.61,-711.94"/>
</g>
<!-- &#45;4177781678778045462 -->
<g id="node15" class="node">
<title>&#45;4177781678778045462</title>
<polygon fill="none" stroke="black" points="606.62,-612 373.12,-612 373.12,-576 606.62,-576 606.62,-612"/>
<text xml:space="preserve" text-anchor="middle" x="489.88" y="-586.62" font-family="Helvetica,sans-Serif" font-size="20.00">PropertyMap(Projection)</text>
</g>
<!-- &#45;4177781678778045462&#45;&gt;3452632759753273270 -->
<g id="edge15" class="edge">
<title>&#45;4177781678778045462&#45;&gt;3452632759753273270</title>
<path fill="none" stroke="black" d="M487.9,-612.3C487.06,-619.59 486.07,-628.27 485.14,-636.46"/>
<polygon fill="black" stroke="black" points="481.66,-636.06 484,-646.39 488.61,-636.85 481.66,-636.06"/>
</g>
<!-- &#45;5964865556416128289&#45;&gt;&#45;4177781678778045462 -->
<g id="edge17" class="edge">
<title>&#45;5964865556416128289&#45;&gt;&#45;4177781678778045462</title>
<path fill="none" stroke="black" d="M495.9,-540.3C495.06,-547.59 494.07,-556.27 493.14,-564.46"/>
<polygon fill="black" stroke="black" points="489.66,-564.06 492,-574.39 496.61,-564.85 489.66,-564.06"/>
</g>
</g>
</svg>
